# xmcd
#
# Track frame offsets:
#  150
#  16905
#  30372
#  47117
#
# Disc length: 846 seconds
#
# Revision: 0
# Processed by: cddbd v1.5.1PL0 Copyright (c) Steve Scherf et al.
# Submitted via: Collectorz.com_Music_Collector 6.9
#
DISCID=23034c04
DTITLE=Immature - We Got It
DYEAR=1995
DGENRE=
TTITLE0=Album Version
TTITLE1=Album Version Without Rap
TTITLE2=Instrumental Version
TTITLE3=A Cappella Version
EXTD=
EXTT0=
EXTT1=
EXTT2=
EXTT3=
PLAYORDER=
